<?xml version="1.0" encoding="UTF-8" standalone="no"?>
<!DOCTYPE svg PUBLIC "-//W3C//DTD SVG 1.1//EN" "http://www.w3.org/Graphics/SVG/1.1/DTD/svg11.dtd">
<svg width="100%" height="100%" viewBox="0 0 256 256" version="1.1" xmlns="http://www.w3.org/2000/svg" xmlns:xlink="http://www.w3.org/1999/xlink" xml:space="preserve" xmlns:serif="http://www.serif.com/" style="fill-rule:evenodd;clip-rule:evenodd;stroke-linejoin:round;stroke-miterlimit:2;">
    <rect id="Artboard1" x="0" y="0" width="256" height="256" style="fill:none;"/>
    <g id="Artboard11" serif:id="Artboard1">
        <g transform="matrix(0.319832,0,0,0.319832,9.06646,28.0524)">
            <path d="M157.733,301C116.503,256.682 82,208.33 82,149C82,64 141,-8 318,-8C484,-8 549,62 549,126C549,196.08 495.947,253.844 381.543,307.591C410.616,335.329 440.916,363.09 472.563,390.942C480.418,371.918 485,350.319 485,326C485,314 484,303 483,299C532,290 596,286 654,287C654,287 658,306 658,331C658,389.713 634.461,445.766 594.464,493.291C641.236,530.833 690.655,568.682 743,607C715,618 563,626 531,629C512.346,615.405 493.342,601.084 474.142,586.174C415.11,615.65 345.962,633 273,633C102,633 27,563 27,467C27,390.372 76.175,342.984 157.733,301ZM360.106,492.669C316.551,455.106 273.534,415.891 232.804,376.55C214.65,396.226 206,416.667 206,441C206,487 253,505 298,505C315.524,505 337.472,501.026 360.106,492.669ZM307.947,236.156C342.777,212.938 370,188.67 370,161C370,133 346,116 312,116C280,116 258,126 258,154C258,180.775 275.281,203.36 307.947,236.156Z" style="fill:rgb(152,0,255);"/>
        </g>
    </g>
</svg>
